<?xml version="1.0" encoding="iso-8859-1"?>
<!-- Uploaded to: SVG Repo, www.svgrepo.com, Generator: SVG Repo Mixer Tools -->
<svg fill="#ffffff" stroke="#343434" height="800px" width="800px" version="1.1" id="Layer_1"
    xmlns="http://www.w3.org/2000/svg" xmlns:xlink="http://www.w3.org/1999/xlink" viewBox="0 0 512 512"
    xml:space="preserve">
    <g>
        <g>
            <path d="M253.659,0H123.456H86.661C73.809,0,63.389,10.42,63.389,23.273c0,12.853,10.42,23.273,23.273,23.273h13.521v187.988
			c0,12.851,10.42,23.273,23.273,23.273h39.201c6.173,0,12.093-2.453,16.455-6.817l32.084-32.084v56.076l-97.379,97.382h297.996
			V158.16C411.814,70.949,340.865,0,253.659,0z" />
        </g>
    </g>
    <g>
        <g>
            <path d="M50.244,418.909v69.818c0,12.851,10.42,23.273,23.273,23.273h364.966c12.853,0,23.273-10.422,23.273-23.273v-69.818
			H50.244z" />
        </g>
    </g>
</svg>